<?xml version="1.0" encoding="UTF-8" standalone="no"?>
<svg
   xmlns:dc="http://purl.org/dc/elements/1.1/"
   xmlns:cc="http://creativecommons.org/ns#"
   xmlns:rdf="http://www.w3.org/1999/02/22-rdf-syntax-ns#"
   xmlns:svg="http://www.w3.org/2000/svg"
   xmlns="http://www.w3.org/2000/svg"
   xmlns:sodipodi="http://sodipodi.sourceforge.net/DTD/sodipodi-0.dtd"
   xmlns:inkscape="http://www.inkscape.org/namespaces/inkscape"
   width="128px"
   height="128px"
   viewBox="0 0 128 128"
   version="1.1"
   id="svg2"
   inkscape:version="0.48.4 r9939"
   sodipodi:docname="icon.svg">
  <title
     id="title2992">icon</title>
  <metadata
     id="metadata14">
    <rdf:RDF>
      <cc:Work
         rdf:about="">
        <dc:format>image/svg+xml</dc:format>
        <dc:type
           rdf:resource="http://purl.org/dc/dcmitype/StillImage" />
        <dc:title>icon</dc:title>
      </cc:Work>
    </rdf:RDF>
  </metadata>
  <sodipodi:namedview
     pagecolor="#ffffff"
     bordercolor="#666666"
     borderopacity="1"
     objecttolerance="10"
     gridtolerance="10"
     guidetolerance="10"
     inkscape:pageopacity="0"
     inkscape:pageshadow="2"
     inkscape:window-width="477"
     inkscape:window-height="447"
     id="namedview12"
     showgrid="true"
     inkscape:zoom="2.1601563"
     inkscape:cx="74.11636"
     inkscape:cy="73.115251"
     inkscape:window-x="461"
     inkscape:window-y="227"
     inkscape:window-maximized="0"
     inkscape:current-layer="g2998"
     borderlayer="true"
     showguides="true"
     inkscape:guide-bbox="true">
    <inkscape:grid
       type="xygrid"
       id="grid2990"
       empspacing="5"
       visible="true"
       enabled="true"
       snapvisiblegridlinesonly="true" />
    <sodipodi:guide
       orientation="1,0"
       position="0,50"
       id="guide3017" />
    <sodipodi:guide
       orientation="1,0"
       position="128,60"
       id="guide3019" />
    <sodipodi:guide
       orientation="0,1"
       position="17,128"
       id="guide3021" />
    <sodipodi:guide
       orientation="0,1"
       position="21,0"
       id="guide3023" />
  </sodipodi:namedview>
  <!-- Generator: Sketch 3.0.2 (7799) - http://www.bohemiancoding.com/sketch -->
  <description
     id="description6">Created with Sketch.</description>
  <defs
     id="defs8">
    <marker
       inkscape:stockid="Arrow2Send"
       orient="auto"
       refY="0.0"
       refX="0.0"
       id="Arrow2Send"
       style="overflow:visible;">
      <path
         id="path3886"
         style="fill-rule:evenodd;stroke-width:0.62500000;stroke-linejoin:round;"
         d="M 8.7185878,4.0337352 L -2.2072895,0.016013256 L 8.7185884,-4.0017078 C 6.9730900,-1.6296469 6.9831476,1.6157441 8.7185878,4.0337352 z "
         transform="scale(0.3) rotate(180) translate(-2.3,0)" />
    </marker>
  </defs>
  <g
     inkscape:label="Layer1"
     id="g2998"
     inkscape:groupmode="layer"
     style="display:inline"
     sodipodi:insensitive="true">
    <path
       style="font-size:medium;font-style:normal;font-variant:normal;font-weight:normal;font-stretch:normal;text-indent:0;text-align:start;text-decoration:none;line-height:normal;letter-spacing:normal;word-spacing:normal;text-transform:none;direction:ltr;block-progression:tb;writing-mode:lr-tb;text-anchor:start;baseline-shift:baseline;color:#000000;fill:#ffffff;fill-opacity:1;stroke:#000000;stroke-width:1;stroke-miterlimit:4;stroke-dasharray:none;marker:none;visibility:visible;display:inline;overflow:visible;enable-background:accumulate;font-family:Sans;-inkscape-font-specification:Sans"
       d="M 55.21875,11.28125 C 47.220779,11.384578 39.735797,16.398286 35,22.65625 c -5.731172,6.256923 -7.474249,14.647855 -11.125,21.9375 -0.0043,0.0085 0.0043,0.02273 0,0.03125 -4.100884,6.842443 -5.572392,14.788624 -7.09375,22.46875 l 0,0.03125 c -0.509046,10.18615 0.148288,20.464606 1.3125,30.59375 l 0,0.03125 c 1.405016,9.59318 2.321397,19.53818 2.65625,28.25005 31.870906,0.006 64.941351,0.20875 93.50015,1e-4 -0.18554,-17.23335 0.70115,-34.907417 0.7186,-50.3752 -0.002,-0.01005 0.002,-0.02119 0,-0.03125 -1.54924,-9.479671 -1.68435,-19.617342 -6.4375,-28.375 C 104.75565,40.766575 98.361888,36.420203 94.375,30.25 l -0.03125,0 0,-0.03125 C 90.536349,26.111711 85.104343,23.71288 80.40625,20.84375 73.395908,17.37413 66.41331,13.374223 58.6875,11.5625 l -0.03125,0 c -1.157171,-0.196024 -2.294933,-0.296011 -3.4375,-0.28125 z"
       id="path3848"
       inkscape:connector-curvature="0"
       sodipodi:nodetypes="sccccccccccccccccccs" />
  </g>
  <g
     inkscape:groupmode="layer"
     id="layer2"
     inkscape:label="Layer2"
     sodipodi:insensitive="true">
    <path
       style="fill:#ce857f;fill-opacity:1;stroke:#000000;stroke-width:0.5;stroke-linecap:butt;stroke-linejoin:miter;stroke-miterlimit:4;stroke-opacity:1;stroke-dasharray:none"
       d="m 62.40915,72.323739 c 2.685036,0.696341 5.542762,0.978595 7.992442,2.356381 1.517338,1.853312 1.854977,3.96055 2.923187,6.629373 4.675221,3.412139 4.447823,3.400035 4.989543,4.668351 1.091746,1.811782 1.428676,4.256777 3.522167,5.255579 C 83.771659,92.279638 84.99841,95.786474 85,96 c -0.08246,0.363145 -0.426578,5.38996 -2.821605,5.9015 -2.467472,0.33567 -4.856402,-0.0276 -7.008907,-1.02797 C 72.912498,100.65114 71.303493,99.80431 71,100 c -0.445259,-0.0264 -6.327072,1.41076 -8.794072,1.0205 -2.261913,0.42138 -4.651854,1.67336 -6.909139,0.63623 -1.737527,-0.50806 -3.416347,-1.07803 -4.988847,-2.00357 -2.077384,-0.9631 -4.422031,-0.52031 -6.638574,-0.62237 -1.944855,0.41096 -4.178044,0.71586 -5.632504,-0.69071 -2.114565,-1.374796 -3.473959,-4.056566 -2.050272,-6.415311 1.381671,-1.454765 2.886617,-2.793564 4.490529,-4.005762 1.789743,-1.275604 4.158624,-1.111337 6.077141,-2.130665 2.335084,-0.547276 4.456451,-1.871016 5.84237,-3.845543 2.247634,-1.238262 2.190205,-3.642115 2.622695,-5.819274 0.143999,-2.37226 2.909741,-2.934751 4.701954,-3.705528 0.876348,-0.229981 1.796184,-0.218274 2.687869,-0.09426 z"
       id="path2999"
       inkscape:connector-curvature="0"
       sodipodi:nodetypes="ccccccccccccccccccccc" />
    <path
       style="fill:#ce857f;fill-opacity:1;stroke:#000000;stroke-width:0.5;stroke-linecap:butt;stroke-linejoin:miter;stroke-miterlimit:4;stroke-opacity:1;stroke-dasharray:none"
       d="M 35,41 C 32.40776,40.669199 29.683223,42.877939 30.011075,45.591964 29,49 30,46 29,50 c -0.702977,6.128961 -0.0546,13.170082 1.391138,19.161136 0.579816,1.812456 2.525925,2.894007 4.102999,3.90999 1.699791,1.094497 3.976951,1.716235 5.820461,0.577258 1.444876,-0.911586 2.471603,-2.410671 4.211825,-2.874895 1.935039,-0.434213 2.957602,-2.244179 2.866778,-4.131455 0.172993,-1.743531 -0.323031,-3.440737 -1.18135,-4.944568 -0.395668,-1.852139 -1.636486,-3.343541 -2.358516,-5.07189 C 42.339634,54.076126 43,55 40.089627,48.501091 40,48.573251 37.671293,44.782975 36.721988,42.737744 36.227646,42.11777 35.820317,41.230359 35,41 z"
       id="path3787"
       inkscape:connector-curvature="0"
       sodipodi:nodetypes="ccccccccccccc" />
    <path
       style="fill:#ce857f;fill-opacity:1;stroke:#000000;stroke-width:0.5;stroke-linecap:butt;stroke-linejoin:miter;stroke-miterlimit:4;stroke-opacity:1;stroke-dasharray:none"
       d="m 55,21 c -1.742046,-0.648968 -2.601829,1.424843 -3.621451,2.400275 -1.207168,1.373146 -1.641257,3.326438 -1.302583,5.104943 -0.283472,2.01022 -1.595775,3.809322 -1.391813,5.899001 -0.188431,1.726352 -0.756646,3.432501 -0.538134,5.183676 -0.199828,1.739503 -0.69234,3.4863 -0.316655,5.241584 0.305884,2.903005 -0.156147,6.910267 2.170636,8.780326 0.968374,1.168133 3.476385,1.77807 5.21393,1.753557 2.125276,0.08997 3.639678,-2.107872 3.59544,-4.07887 0.182331,-2.600924 -0.290133,-5.208647 -0.0064,-7.805507 -0.03207,-2.392953 0.469757,-4.762272 0.340236,-7.159479 0.01762,-1.736555 -0.282575,-3.532684 0.306607,-5.206369 0.486806,-1.696136 -0.280017,-3.341734 -0.409434,-5.024109 C 58.77698,24.420212 58.48856,22.332091 56.811851,21.4858 56.24871,21.202857 55.624516,21.059848 55,21 z"
       id="path3796"
       inkscape:connector-curvature="0"
       sodipodi:nodetypes="ccccccccccccccc" />
    <path
       style="fill:#ce857f;fill-opacity:1;stroke:#000000;stroke-width:0.5;stroke-linecap:butt;stroke-linejoin:miter;stroke-miterlimit:4;stroke-opacity:1;stroke-dasharray:none"
       d="m 70,24 c -1,0 -3.003687,2.491291 -3,4 -0.75795,3.996296 -0.516123,8.376098 -0.359746,11.655886 0.213213,1.809657 0.0084,3.663708 -0.611154,5.372828 -0.334358,2.425938 -0.252744,4.8832 0.07145,7.30364 0.142084,1.263649 0.452614,2.751077 1.767665,3.296977 2.655554,1.353855 5.956228,-0.156823 7.399642,-2.588494 0.67052,-0.963391 0.809512,-2.237786 1.777986,-2.992235 0.864467,-0.807177 1.88678,-1.709363 1.872208,-2.998831 C 79.491042,43.121052 78.371479,39.216506 77.341112,35.463977 76.755708,33.5866 75.616554,31.968071 74.402,30.451232 73.346802,28.981266 72.54172,27.348539 71.8028,25.708685 71.323124,25.031276 70.469825,24.138723 70,24 z"
       id="path3814"
       inkscape:connector-curvature="0"
       sodipodi:nodetypes="ccccccccccccc" />
    <path
       style="fill:#ce857f;fill-opacity:1;stroke:#000000;stroke-width:0.5;stroke-linecap:butt;stroke-linejoin:miter;stroke-miterlimit:4;stroke-opacity:1;stroke-dasharray:none"
       d="m 82,76 c 2.364998,0.48516 4.510336,-1.027217 6.210262,-2.484777 1.349138,-1.200554 3.067537,-1.993213 4.094151,-3.532782 1.804339,-2.445555 2.326309,-5.635816 1.895291,-8.599913 -0.27388,-3.408876 -0.287775,-6.95698 -1.710355,-10.134255 -0.571854,-1.29775 -2.058531,-1.474852 -3.301313,-1.519934 -1.675854,-0.102033 -3.532503,0.559225 -4.319921,2.139301 -1.318326,1.900723 -3.020825,3.565463 -3.991824,5.687103 -0.787267,2.296765 -0.501433,4.771327 -0.984912,7.124538 0.122424,2.513499 -0.332659,5.047612 0.01626,7.546462 0.368245,1.366085 0.952183,2.753272 1.988776,3.742345 l 0.06018,0.01854 L 82,76 z"
       id="path3830"
       inkscape:connector-curvature="0" />
  </g>
  <g
     inkscape:groupmode="layer"
     id="layer3"
     inkscape:label="Layer3"
     sodipodi:insensitive="true">
    <path
       style="opacity:0.11934156;fill:#0000ff;fill-opacity:1;stroke:none"
       d="M 125.51145,118 10,118"
       id="path4875"
       inkscape:connector-curvature="0"
       sodipodi:nodetypes="cc" />
    <path
       style="fill:none;stroke:#000000;stroke-width:2;stroke-linecap:butt;stroke-linejoin:miter;stroke-miterlimit:4;stroke-opacity:1;stroke-dasharray:none;marker-end:url(#Arrow2Send)"
       d="M 10,123 10,3"
       id="path3847"
       inkscape:connector-curvature="0" />
    <path
       style="fill:none;stroke:#000000;stroke-width:2;stroke-linecap:butt;stroke-linejoin:miter;stroke-miterlimit:4;stroke-opacity:1;stroke-dasharray:none;marker-end:url(#Arrow2Send)"
       d="m 5.0404073,118.50782 119.9999627,0"
       id="path3847-5"
       inkscape:connector-curvature="0" />
  </g>
</svg>
